# xmcd
#
# Track frame offsets:
#	150
#	28768
#	51094
#	82277
#	103225
#	141038
#	175240
#	203988
#	225263
#	248133
#	266011
#
# Disc length: 3869
#
# Revision: 4
# Processed by: cddbd v1.5.1PL0 Copyright (c) Steve Scherf et al.
# Submitted via: Grip 3.2.0
# Normalized: r3:DSETVAR2
#
DISCID=990f1b0b
DTITLE=Various Artist - Hed Kandi - Back To Love 1 CD 2
DYEAR=1999
DGENRE=House
TTITLE0=Zoe - Sunshine On A Rainy Day [Original 12" Version]
TTITLE1=The Family Stand - Ghetto Heaven [Original Soul II Soul 12" Remix w/ Jazzy B]
TTITLE2=Diana Brown and Barrie K Sharp - The Masterplan [Extended Version]
TTITLE3=Young Disciples - Apparently Nothin' [Original 12" Mix]
TTITLE4=Mantronix - Got To Have Your Love [12" Club w/ Bonus Beats]
TTITLE5=Lisa Lisa and Cult Jam - Let The Beat Hit'Em [Brand New Super Pumped Up]
TTITLE6=Paul Simpson feat. Adeva and Carman Marie - Musical Freedom [12" Mix]
TTITLE7=Rufus and Chaka Khan - Ain't Nobody [Original]
TTITLE8=Richie Havens - Going Back To My Roots [Original]
TTITLE9=Gwen McCrae - All This Love That I'm Giving [Original]
TTITLE10=Sounds Of Blackness - Optimistic [Album Version]
EXTD=
EXTT0=
EXTT1=
EXTT2=
EXTT3=
EXTT4=
EXTT5=
EXTT6=
EXTT7=
EXTT8=
EXTT9=
EXTT10=
PLAYORDER=
